<?xml version="1.0" encoding="UTF-8"?>
<!DOCTYPE svg PUBLIC "-//W3C//DTD SVG 1.1//EN" "http://www.w3.org/Graphics/SVG/1.1/DTD/svg11.dtd">
<svg xmlns="http://www.w3.org/2000/svg" version="1.1" width="60px" height="60px" style="shape-rendering:geometricPrecision; text-rendering:geometricPrecision; image-rendering:optimizeQuality; fill-rule:evenodd; clip-rule:evenodd" xmlns:xlink="http://www.w3.org/1999/xlink">
<g><path style="opacity:0.457" fill="#1d0b05" d="M 17.5,1.5 C 19.8614,2.43484 22.0281,3.76817 24,5.5C 24.7172,4.9558 25.2172,4.28913 25.5,3.5C 27.0269,3.42702 28.0269,4.09368 28.5,5.5C 26.9731,5.42702 25.9731,6.09368 25.5,7.5C 23.4561,6.49178 21.4561,5.49178 19.5,4.5C 18.4489,3.77765 17.7822,2.77765 17.5,1.5 Z"/></g>
<g><path style="opacity:1" fill="#221712" d="M 17.5,1.5 C 17.7822,2.77765 18.4489,3.77765 19.5,4.5C 18.325,4.28099 17.325,4.61432 16.5,5.5C 16.0576,6.73867 15.3909,7.73867 14.5,8.5C 14.1667,8.5 13.8333,8.5 13.5,8.5C 12.6295,5.88769 11.9628,3.22102 11.5,0.5C 13.6208,0.325255 15.6208,0.658588 17.5,1.5 Z"/></g>
<g><path style="opacity:1" fill="#19120e" d="M 27.5,-0.5 C 28.1667,-0.5 28.8333,-0.5 29.5,-0.5C 30.1667,1.5 30.8333,3.5 31.5,5.5C 31.1667,5.5 30.8333,5.5 30.5,5.5C 30.1667,5.5 29.8333,5.5 29.5,5.5C 29.1667,5.5 28.8333,5.5 28.5,5.5C 28.0269,4.09368 27.0269,3.42702 25.5,3.5C 26.1667,2.16667 26.8333,0.833333 27.5,-0.5 Z"/></g>
<g><path style="opacity:0.997" fill="#1a0905" d="M 40.5,6.5 C 39.8333,6.5 39.5,6.83333 39.5,7.5C 37.2133,7.7239 35.0466,8.39057 33,9.5C 31.7141,8.65004 31.8808,7.48337 33.5,6C 33.2716,5.60123 32.9382,5.43456 32.5,5.5C 34.9849,3.08663 37.9849,1.41996 41.5,0.5C 41.8333,1 42.1667,1.5 42.5,2C 41.2927,3.30019 40.6261,4.80019 40.5,6.5 Z"/></g>
<g><path style="opacity:1" fill="#412116" d="M 19.5,4.5 C 21.4561,5.49178 23.4561,6.49178 25.5,7.5C 24.9522,9.53235 23.6188,10.5323 21.5,10.5C 21.1667,10.5 20.8333,10.5 20.5,10.5C 19.2601,8.01548 18.2601,8.01548 17.5,10.5C 15.9731,10.573 14.9731,9.90632 14.5,8.5C 15.3909,7.73867 16.0576,6.73867 16.5,5.5C 17.325,4.61432 18.325,4.28099 19.5,4.5 Z"/></g>
<g><path style="opacity:1" fill="#210f0b" d="M 50.5,5.5 C 50.5299,6.49722 50.0299,7.16389 49,7.5C 47.6996,6.54801 46.533,6.54801 45.5,7.5C 48.1814,9.39861 49.1814,11.7319 48.5,14.5C 47.0784,10.2801 44.0784,8.28011 39.5,8.5C 39.5,8.16667 39.5,7.83333 39.5,7.5C 39.5,6.83333 39.8333,6.5 40.5,6.5C 43.7644,5.67577 47.0977,5.34243 50.5,5.5 Z"/></g>
<g><path style="opacity:0.934" fill="#0c0403" d="M 50.5,5.5 C 58.9257,7.41813 59.259,9.58479 51.5,12C 51.9574,12.414 52.2907,12.914 52.5,13.5C 51.2342,14.3624 49.9008,15.0291 48.5,15.5C 48.5,15.1667 48.5,14.8333 48.5,14.5C 49.1814,11.7319 48.1814,9.39861 45.5,7.5C 46.533,6.54801 47.6996,6.54801 49,7.5C 50.0299,7.16389 50.5299,6.49722 50.5,5.5 Z"/></g>
<g><path style="opacity:1" fill="#cc450e" d="M 28.5,5.5 C 28.8333,5.5 29.1667,5.5 29.5,5.5C 29.5,6.83333 29.5,8.16667 29.5,9.5C 28.596,10.209 28.2627,11.209 28.5,12.5C 27.8485,11.9094 27.1818,11.2427 26.5,10.5C 24.6837,11.7349 23.017,11.7349 21.5,10.5C 23.6188,10.5323 24.9522,9.53235 25.5,7.5C 25.9731,6.09368 26.9731,5.42702 28.5,5.5 Z"/></g>
<g><path style="opacity:1" fill="#48261c" d="M 30.5,5.5 C 30.8333,5.5 31.1667,5.5 31.5,5.5C 31.8333,5.5 32.1667,5.5 32.5,5.5C 32.9382,5.43456 33.2716,5.60123 33.5,6C 31.8808,7.48337 31.7141,8.65004 33,9.5C 35.0466,8.39057 37.2133,7.7239 39.5,7.5C 39.5,7.83333 39.5,8.16667 39.5,8.5C 36.7847,10.123 33.7847,10.7896 30.5,10.5C 30.5,8.83333 30.5,7.16667 30.5,5.5 Z"/></g>
<g><path style="opacity:0.988" fill="#2c1a13" d="M 12.5,8.5 C 10.8333,10.5 9.16667,12.5 7.5,14.5C 6.60895,15.1098 5.60895,15.4431 4.5,15.5C 6.56913,12.4275 9.2358,10.0941 12.5,8.5 Z"/></g>
<g><path style="opacity:1" fill="#56180b" d="M 29.5,5.5 C 29.8333,5.5 30.1667,5.5 30.5,5.5C 30.5,7.16667 30.5,8.83333 30.5,10.5C 33.7847,10.7896 36.7847,10.123 39.5,8.5C 39.5,9.16667 39.5,9.83333 39.5,10.5C 39.5,10.8333 39.5,11.1667 39.5,11.5C 36.8068,12.8466 34.1401,14.1799 31.5,15.5C 30.5418,13.6976 29.8751,11.6976 29.5,9.5C 29.5,8.16667 29.5,6.83333 29.5,5.5 Z"/></g>
<g><path style="opacity:1" fill="#f25911" d="M 20.5,10.5 C 20.8333,10.5 21.1667,10.5 21.5,10.5C 23.017,11.7349 24.6837,11.7349 26.5,10.5C 27.1818,11.2427 27.8485,11.9094 28.5,12.5C 29.3382,12.8417 29.6716,13.5084 29.5,14.5C 27.2082,13.1542 25.2082,13.4876 23.5,15.5C 22.5255,14.365 21.3588,13.365 20,12.5C 19.3083,11.5632 19.475,10.8966 20.5,10.5 Z"/></g>
<g><path style="opacity:1" fill="#7c5a49" d="M 12.5,8.5 C 12.8333,8.5 13.1667,8.5 13.5,8.5C 13.8333,8.5 14.1667,8.5 14.5,8.5C 14.9731,9.90632 15.9731,10.573 17.5,10.5C 17.6107,11.1174 17.944,11.6174 18.5,12C 17.2068,12.49 15.8734,12.6567 14.5,12.5C 12.5,13.5 10.5,14.5 8.5,15.5C 7.83333,15.5 7.5,15.1667 7.5,14.5C 9.16667,12.5 10.8333,10.5 12.5,8.5 Z"/></g>
<g><path style="opacity:1" fill="#6d270e" d="M 20.5,10.5 C 19.475,10.8966 19.3083,11.5632 20,12.5C 21.3588,13.365 22.5255,14.365 23.5,15.5C 23.5,16.1667 23.8333,16.5 24.5,16.5C 24.1583,17.3382 23.4916,17.6716 22.5,17.5C 22.1583,16.6618 21.4916,16.3284 20.5,16.5C 18.7857,15.2616 16.7857,14.595 14.5,14.5C 14.5,13.8333 14.5,13.1667 14.5,12.5C 15.8734,12.6567 17.2068,12.49 18.5,12C 17.944,11.6174 17.6107,11.1174 17.5,10.5C 18.2601,8.01548 19.2601,8.01548 20.5,10.5 Z"/></g>
<g><path style="opacity:1" fill="#f38019" d="M 29.5,14.5 C 29.1667,15.8333 28.8333,17.1667 28.5,18.5C 27.596,17.791 27.2627,16.791 27.5,15.5C 26.209,15.2627 25.209,15.596 24.5,16.5C 23.8333,16.5 23.5,16.1667 23.5,15.5C 25.2082,13.4876 27.2082,13.1542 29.5,14.5 Z"/></g>
<g><path style="opacity:1" fill="#ca400f" d="M 39.5,11.5 C 41.8444,11.6748 43.511,12.8415 44.5,15C 43.4366,16.1882 42.1033,16.6882 40.5,16.5C 39.1667,16.5 37.8333,16.5 36.5,16.5C 34.8333,16.5 33.1667,16.5 31.5,16.5C 31.5,16.1667 31.5,15.8333 31.5,15.5C 34.1401,14.1799 36.8068,12.8466 39.5,11.5 Z"/></g>
<g><path style="opacity:1" fill="#903614" d="M 29.5,9.5 C 29.8751,11.6976 30.5418,13.6976 31.5,15.5C 31.5,15.8333 31.5,16.1667 31.5,16.5C 30.8333,16.5 30.5,16.8333 30.5,17.5C 29.8333,17.8333 29.1667,18.1667 28.5,18.5C 28.8333,17.1667 29.1667,15.8333 29.5,14.5C 29.6716,13.5084 29.3382,12.8417 28.5,12.5C 28.2627,11.209 28.596,10.209 29.5,9.5 Z"/></g>
<g><path style="opacity:0.106" fill="#390e05" d="M 39.5,8.5 C 44.0784,8.28011 47.0784,10.2801 48.5,14.5C 48.5,14.8333 48.5,15.1667 48.5,15.5C 48.5,15.8333 48.5,16.1667 48.5,16.5C 48.5,17.8333 49.1667,18.5 50.5,18.5C 50.5,19.5 50.5,20.5 50.5,21.5C 49.2652,21.2786 48.2652,20.6119 47.5,19.5C 47.5299,13.872 44.8632,10.872 39.5,10.5C 39.5,9.83333 39.5,9.16667 39.5,8.5 Z"/></g>
<g><path style="opacity:1" fill="#922c0a" d="M 14.5,14.5 C 16.7857,14.595 18.7857,15.2616 20.5,16.5C 19.1667,16.5 17.8333,16.5 16.5,16.5C 14.5,17.5 12.5,18.5 10.5,19.5C 10.5,18.8333 10.5,18.1667 10.5,17.5C 11.2623,15.7376 12.5956,14.7376 14.5,14.5 Z"/></g>
<g><path style="opacity:1" fill="#bf916f" d="M 36.5,16.5 C 37.8333,16.5 39.1667,16.5 40.5,16.5C 40.5,16.8333 40.5,17.1667 40.5,17.5C 38.8828,18.038 37.2161,18.3713 35.5,18.5C 35.8333,17.8333 36.1667,17.1667 36.5,16.5 Z"/></g>
<g><path style="opacity:1" fill="#441e0e" d="M 14.5,12.5 C 14.5,13.1667 14.5,13.8333 14.5,14.5C 12.5956,14.7376 11.2623,15.7376 10.5,17.5C 9.14294,18.5903 8.14294,19.9236 7.5,21.5C 6.66175,21.1583 6.32842,20.4916 6.5,19.5C 6.73286,17.9382 7.39952,16.6049 8.5,15.5C 10.5,14.5 12.5,13.5 14.5,12.5 Z"/></g>
<g><path style="opacity:1" fill="#f18120" d="M 16.5,16.5 C 17.8333,16.5 19.1667,16.5 20.5,16.5C 21.4916,16.3284 22.1583,16.6618 22.5,17.5C 20.5853,17.2155 18.9187,17.5489 17.5,18.5C 14.3833,22.3031 15.3833,24.6364 20.5,25.5C 20.5,25.8333 20.5,26.1667 20.5,26.5C 19.1667,26.5 17.8333,26.5 16.5,26.5C 15.8333,26.5 15.1667,26.5 14.5,26.5C 14.6107,25.8826 14.944,25.3826 15.5,25C 12.8146,21.8833 13.148,19.05 16.5,16.5 Z"/></g>
<g><path style="opacity:1" fill="#6d1707" d="M 39.5,11.5 C 39.5,11.1667 39.5,10.8333 39.5,10.5C 44.8632,10.872 47.5299,13.872 47.5,19.5C 48.2652,20.6119 49.2652,21.2786 50.5,21.5C 54.3689,24.7748 55.3689,28.7748 53.5,33.5C 52.1283,32.4884 50.795,31.4884 49.5,30.5C 50.3764,30.6309 51.0431,30.2975 51.5,29.5C 50.5187,26.5576 48.852,24.2242 46.5,22.5C 46.6107,21.8826 46.944,21.3826 47.5,21C 45.3476,19.5873 43.0143,18.7539 40.5,18.5C 40.5,18.1667 40.5,17.8333 40.5,17.5C 40.5,17.1667 40.5,16.8333 40.5,16.5C 42.1033,16.6882 43.4366,16.1882 44.5,15C 43.511,12.8415 41.8444,11.6748 39.5,11.5 Z"/></g>
<g><path style="opacity:1" fill="#fdb82a" d="M 17.5,18.5 C 22.339,18.2217 27.0056,18.8884 31.5,20.5C 31.5,21.1667 31.5,21.8333 31.5,22.5C 30.0413,22.5674 28.7079,22.2341 27.5,21.5C 24.1184,18.5671 21.1184,18.9004 18.5,22.5C 19.1925,23.5178 19.8592,24.5178 20.5,25.5C 15.3833,24.6364 14.3833,22.3031 17.5,18.5 Z"/></g>
<g><path style="opacity:1" fill="#f5861e" d="M 30.5,17.5 C 30.5,16.8333 30.8333,16.5 31.5,16.5C 33.1667,16.5 34.8333,16.5 36.5,16.5C 36.1667,17.1667 35.8333,17.8333 35.5,18.5C 34.5,20.1667 33.1667,21.5 31.5,22.5C 31.5,21.8333 31.5,21.1667 31.5,20.5C 31.7373,19.209 31.404,18.209 30.5,17.5 Z"/></g>
<g><path style="opacity:1" fill="#faa221" d="M 28.5,18.5 C 29.1667,18.1667 29.8333,17.8333 30.5,17.5C 31.404,18.209 31.7373,19.209 31.5,20.5C 27.0056,18.8884 22.339,18.2217 17.5,18.5C 18.9187,17.5489 20.5853,17.2155 22.5,17.5C 23.4916,17.6716 24.1583,17.3382 24.5,16.5C 25.209,15.596 26.209,15.2627 27.5,15.5C 27.2627,16.791 27.596,17.791 28.5,18.5 Z"/></g>
<g><path style="opacity:1" fill="#6d230b" d="M 40.5,17.5 C 40.5,17.8333 40.5,18.1667 40.5,18.5C 39.4097,19.8571 38.0764,20.8571 36.5,21.5C 35.5084,21.3284 34.8417,21.6618 34.5,22.5C 33.8333,22.5 33.5,22.8333 33.5,23.5C 32.8333,23.5 32.1667,23.5 31.5,23.5C 31.5,23.1667 31.5,22.8333 31.5,22.5C 33.1667,21.5 34.5,20.1667 35.5,18.5C 37.2161,18.3713 38.8828,18.038 40.5,17.5 Z"/></g>
<g><path style="opacity:1" fill="#523c31" d="M 7.5,14.5 C 7.5,15.1667 7.83333,15.5 8.5,15.5C 7.39952,16.6049 6.73286,17.9382 6.5,19.5C 5.18514,20.4756 3.85181,21.4756 2.5,22.5C 1.70245,22.0431 1.36912,21.3764 1.5,20.5C 2.07501,18.5887 3.07501,16.922 4.5,15.5C 5.60895,15.4431 6.60895,15.1098 7.5,14.5 Z"/></g>
<g><path style="opacity:1" fill="#8d2307" d="M 40.5,18.5 C 43.0143,18.7539 45.3476,19.5873 47.5,21C 46.944,21.3826 46.6107,21.8826 46.5,22.5C 45.2921,21.7659 43.9587,21.4326 42.5,21.5C 40.5,21.5 38.5,21.5 36.5,21.5C 38.0764,20.8571 39.4097,19.8571 40.5,18.5 Z"/></g>
<g><path style="opacity:0.827" fill="#160502" d="M 48.5,16.5 C 52.6841,16.5919 56.0174,18.2586 58.5,21.5C 56.8333,21.5 55.1667,21.5 53.5,21.5C 52.2719,20.6935 51.2719,19.6935 50.5,18.5C 49.1667,18.5 48.5,17.8333 48.5,16.5 Z"/></g>
<g><path style="opacity:1" fill="#3f261b" d="M 6.5,19.5 C 6.32842,20.4916 6.66175,21.1583 7.5,21.5C 7.5,21.8333 7.5,22.1667 7.5,22.5C 5.72145,23.6697 4.72145,25.3364 4.5,27.5C 3.56552,26.4324 3.23219,25.099 3.5,23.5C 1.82124,23.2852 0.821236,23.9519 0.5,25.5C 0.166667,25.5 -0.166667,25.5 -0.5,25.5C -0.5,24.1667 -0.5,22.8333 -0.5,21.5C 0.166667,21.1667 0.833333,20.8333 1.5,20.5C 1.36912,21.3764 1.70245,22.0431 2.5,22.5C 3.85181,21.4756 5.18514,20.4756 6.5,19.5 Z"/></g>
<g><path style="opacity:1" fill="#fdd03c" d="M 27.5,21.5 C 25.5168,21.1568 24.1834,21.8235 23.5,23.5C 23.5,24.8333 23.5,26.1667 23.5,27.5C 23.1667,27.5 22.8333,27.5 22.5,27.5C 22.1583,26.6618 21.4916,26.3284 20.5,26.5C 20.5,26.1667 20.5,25.8333 20.5,25.5C 19.8592,24.5178 19.1925,23.5178 18.5,22.5C 21.1184,18.9004 24.1184,18.5671 27.5,21.5 Z"/></g>
<g><path style="opacity:1" fill="#2d0a02" d="M 50.5,18.5 C 51.2719,19.6935 52.2719,20.6935 53.5,21.5C 54.2341,22.7079 54.5674,24.0413 54.5,25.5C 55.791,25.2627 56.791,25.596 57.5,26.5C 56.5233,28.8209 55.5233,31.1542 54.5,33.5C 54.1667,33.5 53.8333,33.5 53.5,33.5C 55.3689,28.7748 54.3689,24.7748 50.5,21.5C 50.5,20.5 50.5,19.5 50.5,18.5 Z"/></g>
<g><path style="opacity:1" fill="#1c0703" d="M 53.5,21.5 C 55.1667,21.5 56.8333,21.5 58.5,21.5C 58.8333,21.5 59.1667,21.5 59.5,21.5C 59.5,22.8333 59.5,24.1667 59.5,25.5C 58.8333,25.8333 58.1667,26.1667 57.5,26.5C 56.791,25.596 55.791,25.2627 54.5,25.5C 54.5674,24.0413 54.2341,22.7079 53.5,21.5 Z"/></g>
<g><path style="opacity:1" fill="#d9460d" d="M 16.5,16.5 C 13.148,19.05 12.8146,21.8833 15.5,25C 14.944,25.3826 14.6107,25.8826 14.5,26.5C 13.391,26.5569 12.391,26.8902 11.5,27.5C 10.612,24.9455 10.2786,22.2788 10.5,19.5C 12.5,18.5 14.5,17.5 16.5,16.5 Z"/></g>
<g><path style="opacity:1" fill="#8b290a" d="M 10.5,17.5 C 10.5,18.1667 10.5,18.8333 10.5,19.5C 10.2786,22.2788 10.612,24.9455 11.5,27.5C 10.791,28.404 9.79105,28.7373 8.5,28.5C 8.16667,26.5 7.83333,24.5 7.5,22.5C 7.5,22.1667 7.5,21.8333 7.5,21.5C 8.14294,19.9236 9.14294,18.5903 10.5,17.5 Z"/></g>
<g><path style="opacity:0.76" fill="#190904" d="M 4.5,27.5 C 4.5,28.1667 4.5,28.8333 4.5,29.5C 2.65932,28.5977 1.32599,27.2644 0.5,25.5C 0.821236,23.9519 1.82124,23.2852 3.5,23.5C 3.23219,25.099 3.56552,26.4324 4.5,27.5 Z"/></g>
<g><path style="opacity:1" fill="#fff4cb" d="M 26.5,23.5 C 30.5634,23.616 31.2301,24.9493 28.5,27.5C 29.2419,30.8713 28.2419,31.2047 25.5,28.5C 24.3162,26.533 24.6495,24.8664 26.5,23.5 Z"/></g>
<g><path style="opacity:1" fill="#7d3a11" d="M 16.5,27.5 C 16.5,27.1667 16.5,26.8333 16.5,26.5C 17.8333,26.5 19.1667,26.5 20.5,26.5C 21.4916,26.3284 22.1583,26.6618 22.5,27.5C 21.4324,28.4345 20.099,28.7678 18.5,28.5C 17.8333,28.1667 17.1667,27.8333 16.5,27.5 Z"/></g>
<g><path style="opacity:1" fill="#ca3809" d="M 42.5,21.5 C 43.9587,21.4326 45.2921,21.7659 46.5,22.5C 48.852,24.2242 50.5187,26.5576 51.5,29.5C 51.0431,30.2975 50.3764,30.6309 49.5,30.5C 48.609,29.8902 47.609,29.5569 46.5,29.5C 45.5,29.5 44.5,29.5 43.5,29.5C 43.9817,28.5837 44.315,27.5837 44.5,26.5C 43.8131,24.8228 43.1465,23.1561 42.5,21.5 Z"/></g>
<g><path style="opacity:1" fill="#fde37e" d="M 27.5,21.5 C 28.7079,22.2341 30.0413,22.5674 31.5,22.5C 31.5,22.8333 31.5,23.1667 31.5,23.5C 32.5451,24.8776 33.8784,25.8776 35.5,26.5C 35.2249,28.7583 34.2249,29.0916 32.5,27.5C 31.8243,28.6016 31.1577,29.6016 30.5,30.5C 30.7148,28.8212 30.0481,27.8212 28.5,27.5C 31.2301,24.9493 30.5634,23.616 26.5,23.5C 25.5,23.5 24.5,23.5 23.5,23.5C 24.1834,21.8235 25.5168,21.1568 27.5,21.5 Z"/></g>
<g><path style="opacity:1" fill="#fac241" d="M 31.5,23.5 C 32.1667,23.5 32.8333,23.5 33.5,23.5C 35.1439,23.2865 36.6439,23.6198 38,24.5C 38.1805,26.4884 38.0138,28.4884 37.5,30.5C 36.5,30.5 35.5,30.5 34.5,30.5C 35.2778,29.8444 35.9444,29.0111 36.5,28C 36.4301,27.2352 36.0967,26.7352 35.5,26.5C 33.8784,25.8776 32.5451,24.8776 31.5,23.5 Z"/></g>
<g><path style="opacity:1" fill="#eb6b1a" d="M 34.5,22.5 C 34.8417,21.6618 35.5084,21.3284 36.5,21.5C 38.5,21.5 40.5,21.5 42.5,21.5C 43.1465,23.1561 43.8131,24.8228 44.5,26.5C 44.315,27.5837 43.9817,28.5837 43.5,29.5C 41.9582,30.3007 40.2915,30.634 38.5,30.5C 43.413,24.8474 42.0796,22.1807 34.5,22.5 Z"/></g>
<g><path style="opacity:1" fill="#b9815c" d="M 14.5,26.5 C 15.1667,26.5 15.8333,26.5 16.5,26.5C 16.5,26.8333 16.5,27.1667 16.5,27.5C 15.1667,28.1667 13.8333,28.8333 12.5,29.5C 11.8333,29.8333 11.1667,30.1667 10.5,30.5C 9.16667,30.5 8.5,29.8333 8.5,28.5C 9.79105,28.7373 10.791,28.404 11.5,27.5C 12.391,26.8902 13.391,26.5569 14.5,26.5 Z"/></g>
<g><path style="opacity:1" fill="#b97e29" d="M 22.5,27.5 C 22.8333,27.5 23.1667,27.5 23.5,27.5C 23.5,28.1667 23.5,28.8333 23.5,29.5C 22.5,29.5 21.5,29.5 20.5,29.5C 19.8333,29.5 19.1667,29.5 18.5,29.5C 18.5,29.1667 18.5,28.8333 18.5,28.5C 20.099,28.7678 21.4324,28.4345 22.5,27.5 Z"/></g>
<g><path style="opacity:1" fill="#fdd861" d="M 35.5,26.5 C 36.0967,26.7352 36.4301,27.2352 36.5,28C 35.9444,29.0111 35.2778,29.8444 34.5,30.5C 34.0618,30.4346 33.7284,30.6012 33.5,31C 34.4158,31.2784 35.0825,31.7784 35.5,32.5C 32.4866,32.5809 30.4866,33.9142 29.5,36.5C 28.8333,36.1667 28.1667,35.8333 27.5,35.5C 27.5,34.5 27.5,33.5 27.5,32.5C 28.791,32.7373 29.791,32.404 30.5,31.5C 30.5,31.1667 30.5,30.8333 30.5,30.5C 31.1577,29.6016 31.8243,28.6016 32.5,27.5C 34.2249,29.0916 35.2249,28.7583 35.5,26.5 Z"/></g>
<g><path style="opacity:1" fill="#fbb634" d="M 33.5,23.5 C 33.5,22.8333 33.8333,22.5 34.5,22.5C 42.0796,22.1807 43.413,24.8474 38.5,30.5C 38.5,31.1667 38.1667,31.5 37.5,31.5C 36.8333,31.5 36.5,31.8333 36.5,32.5C 36.1667,32.5 35.8333,32.5 35.5,32.5C 35.0825,31.7784 34.4158,31.2784 33.5,31C 33.7284,30.6012 34.0618,30.4346 34.5,30.5C 35.5,30.5 36.5,30.5 37.5,30.5C 38.0138,28.4884 38.1805,26.4884 38,24.5C 36.6439,23.6198 35.1439,23.2865 33.5,23.5 Z"/></g>
<g><path style="opacity:1" fill="#fceaa6" d="M 23.5,23.5 C 24.5,23.5 25.5,23.5 26.5,23.5C 24.6495,24.8664 24.3162,26.533 25.5,28.5C 28.2419,31.2047 29.2419,30.8713 28.5,27.5C 30.0481,27.8212 30.7148,28.8212 30.5,30.5C 30.5,30.8333 30.5,31.1667 30.5,31.5C 27.6122,32.0102 25.2789,31.3435 23.5,29.5C 23.5,28.8333 23.5,28.1667 23.5,27.5C 23.5,26.1667 23.5,24.8333 23.5,23.5 Z"/></g>
<g><path style="opacity:1" fill="#691c07" d="M 43.5,29.5 C 44.5,29.5 45.5,29.5 46.5,29.5C 46.7822,30.7777 47.4489,31.7777 48.5,32.5C 49.759,33.9791 50.759,35.6458 51.5,37.5C 48.6813,35.3113 45.6813,33.6447 42.5,32.5C 41.8333,32.5 41.1667,32.5 40.5,32.5C 39.8333,32.5 39.1667,32.5 38.5,32.5C 37.8333,32.5 37.5,32.1667 37.5,31.5C 38.1667,31.5 38.5,31.1667 38.5,30.5C 40.2915,30.634 41.9582,30.3007 43.5,29.5 Z"/></g>
<g><path style="opacity:1" fill="#6f3925" d="M 7.5,22.5 C 7.83333,24.5 8.16667,26.5 8.5,28.5C 8.5,29.8333 9.16667,30.5 10.5,30.5C 9.83333,31.1667 9.16667,31.8333 8.5,32.5C 7.27187,31.6935 6.27187,30.6935 5.5,29.5C 5.16667,29.5 4.83333,29.5 4.5,29.5C 4.5,28.8333 4.5,28.1667 4.5,27.5C 4.72145,25.3364 5.72145,23.6697 7.5,22.5 Z"/></g>
<g><path style="opacity:1" fill="#bf380b" d="M 16.5,27.5 C 17.1667,27.8333 17.8333,28.1667 18.5,28.5C 18.5,28.8333 18.5,29.1667 18.5,29.5C 17.1667,30.5 15.8333,31.5 14.5,32.5C 13.5,32.5 12.5,32.5 11.5,32.5C 12.1098,31.609 12.4431,30.609 12.5,29.5C 13.8333,28.8333 15.1667,28.1667 16.5,27.5 Z"/></g>
<g><path style="opacity:1" fill="#fddc67" d="M 20.5,29.5 C 21.5,29.5 22.5,29.5 23.5,29.5C 25.2789,31.3435 27.6122,32.0102 30.5,31.5C 29.791,32.404 28.791,32.7373 27.5,32.5C 27.5,33.5 27.5,34.5 27.5,35.5C 27.5,36.1667 27.1667,36.5 26.5,36.5C 25.391,36.5569 24.391,36.8902 23.5,37.5C 22.5,34.8333 21.5,34.8333 20.5,37.5C 19.3263,36.4863 18.6596,35.153 18.5,33.5C 19.8062,32.5326 20.4729,31.1993 20.5,29.5 Z"/></g>
<g><path style="opacity:1" fill="#f57d19" d="M 18.5,29.5 C 19.1667,29.5 19.8333,29.5 20.5,29.5C 20.4729,31.1993 19.8062,32.5326 18.5,33.5C 14.1554,37.1329 14.8221,39.1329 20.5,39.5C 19.791,40.404 18.791,40.7373 17.5,40.5C 16.5,40.5 15.5,40.5 14.5,40.5C 14.5,37.8333 14.5,35.1667 14.5,32.5C 15.8333,31.5 17.1667,30.5 18.5,29.5 Z"/></g>
<g><path style="opacity:1" fill="#b52204" d="M 42.5,32.5 C 45.6813,33.6447 48.6813,35.3113 51.5,37.5C 51.385,39.9468 50.385,41.9468 48.5,43.5C 48.1667,43.5 47.8333,43.5 47.5,43.5C 46.5,43.1667 45.8333,42.5 45.5,41.5C 46.552,41.6495 47.552,41.4828 48.5,41C 46.3213,38.3166 44.3213,35.4833 42.5,32.5 Z"/></g>
<g><path style="opacity:1" fill="#300b02" d="M 46.5,29.5 C 47.609,29.5569 48.609,29.8902 49.5,30.5C 50.795,31.4884 52.1283,32.4884 53.5,33.5C 53.8333,33.5 54.1667,33.5 54.5,33.5C 55.9063,33.9731 56.573,34.9731 56.5,36.5C 56.19,37.7383 55.69,37.7383 55,36.5C 55.0302,39.3615 54.1969,41.6948 52.5,43.5C 52.1667,43.5 51.8333,43.5 51.5,43.5C 52.5691,40.592 52.7358,37.592 52,34.5C 50.8873,33.695 49.7206,33.0283 48.5,32.5C 47.4489,31.7777 46.7822,30.7777 46.5,29.5 Z"/></g>
<g><path style="opacity:0.443" fill="#72574a" d="M 5.5,29.5 C 6.27187,30.6935 7.27187,31.6935 8.5,32.5C 8.5,33.1667 8.5,33.8333 8.5,34.5C 7.5,34.5 6.5,34.5 5.5,34.5C 5.5,36.1667 5.5,37.8333 5.5,39.5C 4.34775,40.625 3.34775,40.625 2.5,39.5C 2.94932,35.9524 3.94932,32.619 5.5,29.5 Z"/></g>
<g><path style="opacity:1" fill="#feeaaf" d="M 35.5,32.5 C 35.8333,32.5 36.1667,32.5 36.5,32.5C 36.5,34.1667 36.5,35.8333 36.5,37.5C 36.1667,37.5 35.8333,37.5 35.5,37.5C 35.5,36.5 35.5,35.5 35.5,34.5C 33.0274,34.0882 31.6941,35.0882 31.5,37.5C 30.8333,37.1667 30.1667,36.8333 29.5,36.5C 30.4866,33.9142 32.4866,32.5809 35.5,32.5 Z"/></g>
<g><path style="opacity:1" fill="#5a1c09" d="M 12.5,29.5 C 12.4431,30.609 12.1098,31.609 11.5,32.5C 11.5,32.8333 11.5,33.1667 11.5,33.5C 11.1667,33.5 10.8333,33.5 10.5,33.5C 8.78517,35.4384 8.45184,37.6051 9.5,40C 9.16389,41.0299 8.49722,41.5299 7.5,41.5C 7.29803,39.0504 7.63137,36.717 8.5,34.5C 8.5,33.8333 8.5,33.1667 8.5,32.5C 9.16667,31.8333 9.83333,31.1667 10.5,30.5C 11.1667,30.1667 11.8333,29.8333 12.5,29.5 Z"/></g>
<g><path style="opacity:1" fill="#e23f0c" d="M 11.5,32.5 C 12.5,32.5 13.5,32.5 14.5,32.5C 14.5,35.1667 14.5,37.8333 14.5,40.5C 15.5,40.5 16.5,40.5 17.5,40.5C 17.5,40.8333 17.5,41.1667 17.5,41.5C 16.0695,41.4208 14.7362,41.7542 13.5,42.5C 12.3219,39.6092 11.6553,36.6092 11.5,33.5C 11.5,33.1667 11.5,32.8333 11.5,32.5 Z"/></g>
<g><path style="opacity:1" fill="#fff7cb" d="M 23.5,37.5 C 22.8333,37.8333 22.1667,38.1667 21.5,38.5C 20.8333,38.5 20.5,38.1667 20.5,37.5C 21.5,34.8333 22.5,34.8333 23.5,37.5 Z"/></g>
<g><path style="opacity:1" fill="#fff8d9" d="M 35.5,37.5 C 34.1667,38.8333 32.8333,38.8333 31.5,37.5C 31.6941,35.0882 33.0274,34.0882 35.5,34.5C 35.5,35.5 35.5,36.5 35.5,37.5 Z"/></g>
<g><path style="opacity:1" fill="#fca429" d="M 18.5,33.5 C 18.6596,35.153 19.3263,36.4863 20.5,37.5C 20.5,38.1667 20.8333,38.5 21.5,38.5C 21.5,39.1667 21.1667,39.5 20.5,39.5C 14.8221,39.1329 14.1554,37.1329 18.5,33.5 Z"/></g>
<g><path style="opacity:1" fill="#fba13c" d="M 37.5,31.5 C 37.5,32.1667 37.8333,32.5 38.5,32.5C 40.178,35.3096 39.8447,37.643 37.5,39.5C 37.1667,38.8333 36.8333,38.1667 36.5,37.5C 36.5,35.8333 36.5,34.1667 36.5,32.5C 36.5,31.8333 36.8333,31.5 37.5,31.5 Z"/></g>
<g><path style="opacity:1" fill="#e9430c" d="M 40.5,32.5 C 41.1667,32.5 41.8333,32.5 42.5,32.5C 44.3213,35.4833 46.3213,38.3166 48.5,41C 47.552,41.4828 46.552,41.6495 45.5,41.5C 43.8828,40.962 42.2161,40.6287 40.5,40.5C 41.2318,37.9325 41.2318,35.2658 40.5,32.5 Z"/></g>
<g><path style="opacity:1" fill="#5f0f03" d="M 48.5,32.5 C 49.7206,33.0283 50.8873,33.695 52,34.5C 52.7358,37.592 52.5691,40.592 51.5,43.5C 50.5,43.5 49.5,43.5 48.5,43.5C 50.385,41.9468 51.385,39.9468 51.5,37.5C 50.759,35.6458 49.759,33.9791 48.5,32.5 Z"/></g>
<g><path style="opacity:0.843" fill="#060000" d="M 57.5,38.5 C 58.1667,39.5 58.8333,40.5 59.5,41.5C 59.5,43.8333 59.5,46.1667 59.5,48.5C 58.8501,48.8039 58.1835,49.1373 57.5,49.5C 55.9288,47.585 53.9288,46.585 51.5,46.5C 53.017,45.2651 54.6837,45.2651 56.5,46.5C 57.2975,46.0431 57.6309,45.3764 57.5,44.5C 57.0461,42.2589 57.0461,40.2589 57.5,38.5 Z"/></g>
<g><path style="opacity:1" fill="#fcb342" d="M 27.5,35.5 C 28.1667,35.8333 28.8333,36.1667 29.5,36.5C 30.1667,36.8333 30.8333,37.1667 31.5,37.5C 32.8333,38.8333 34.1667,38.8333 35.5,37.5C 35.8333,37.5 36.1667,37.5 36.5,37.5C 36.8333,38.1667 37.1667,38.8333 37.5,39.5C 36.2196,40.9313 34.5529,41.5979 32.5,41.5C 31.609,42.1098 30.609,42.4431 29.5,42.5C 30.9331,37.6923 30.2665,37.359 27.5,41.5C 26.5987,40.7095 25.9321,39.7095 25.5,38.5C 25.8333,37.8333 26.1667,37.1667 26.5,36.5C 27.1667,36.5 27.5,36.1667 27.5,35.5 Z"/></g>
<g><path style="opacity:1" fill="#140301" d="M 56.5,36.5 C 57.3382,36.8417 57.6716,37.5084 57.5,38.5C 57.0461,40.2589 57.0461,42.2589 57.5,44.5C 55.5853,44.7845 53.9187,44.4511 52.5,43.5C 54.1969,41.6948 55.0302,39.3615 55,36.5C 55.69,37.7383 56.19,37.7383 56.5,36.5 Z"/></g>
<g><path style="opacity:1" fill="#2e130b" d="M 8.5,34.5 C 7.63137,36.717 7.29803,39.0504 7.5,41.5C 7.33003,42.8221 7.66337,43.9887 8.5,45C 10.5005,44.2075 12.5005,44.3741 14.5,45.5C 13.6993,47.0418 13.366,48.7085 13.5,50.5C 11.6284,49.4886 9.62844,48.6552 7.5,48C 6.74756,47.3292 6.41423,46.4959 6.5,45.5C 5.85048,43.5648 5.51715,41.5648 5.5,39.5C 5.5,37.8333 5.5,36.1667 5.5,34.5C 6.5,34.5 7.5,34.5 8.5,34.5 Z"/></g>
<g><path style="opacity:1" fill="#721506" d="M 10.5,33.5 C 10.5,36.8333 10.5,40.1667 10.5,43.5C 12.6119,44.2751 14.6119,44.2751 16.5,43.5C 16.5,44.8333 15.8333,45.5 14.5,45.5C 12.5005,44.3741 10.5005,44.2075 8.5,45C 7.66337,43.9887 7.33003,42.8221 7.5,41.5C 8.49722,41.5299 9.16389,41.0299 9.5,40C 8.45184,37.6051 8.78517,35.4384 10.5,33.5 Z"/></g>
<g><path style="opacity:1" fill="#f78c23" d="M 25.5,38.5 C 25.9321,39.7095 26.5987,40.7095 27.5,41.5C 27.1583,42.3382 26.4916,42.6716 25.5,42.5C 24.1667,42.5 23.5,41.8333 23.5,40.5C 23.8333,39.5 24.5,38.8333 25.5,38.5 Z"/></g>
<g><path style="opacity:1" fill="#f0792c" d="M 38.5,32.5 C 39.1667,32.5 39.8333,32.5 40.5,32.5C 41.2318,35.2658 41.2318,37.9325 40.5,40.5C 39.1667,40.5 38.5,41.1667 38.5,42.5C 36.5,42.5 34.5,42.5 32.5,42.5C 32.5,42.1667 32.5,41.8333 32.5,41.5C 34.5529,41.5979 36.2196,40.9313 37.5,39.5C 39.8447,37.643 40.178,35.3096 38.5,32.5 Z"/></g>
<g><path style="opacity:1" fill="#cd1f04" d="M 10.5,33.5 C 10.8333,33.5 11.1667,33.5 11.5,33.5C 11.6553,36.6092 12.3219,39.6092 13.5,42.5C 14.7362,41.7542 16.0695,41.4208 17.5,41.5C 17.1667,42.1667 16.8333,42.8333 16.5,43.5C 14.6119,44.2751 12.6119,44.2751 10.5,43.5C 10.5,40.1667 10.5,36.8333 10.5,33.5 Z"/></g>
<g><path style="opacity:1" fill="#73260d" d="M 26.5,36.5 C 26.1667,37.1667 25.8333,37.8333 25.5,38.5C 24.5,38.8333 23.8333,39.5 23.5,40.5C 22.5,40.8333 21.8333,41.5 21.5,42.5C 20.8333,43.1667 20.1667,43.8333 19.5,44.5C 18.609,43.8902 17.609,43.5569 16.5,43.5C 16.8333,42.8333 17.1667,42.1667 17.5,41.5C 17.5,41.1667 17.5,40.8333 17.5,40.5C 18.791,40.7373 19.791,40.404 20.5,39.5C 21.1667,39.5 21.5,39.1667 21.5,38.5C 22.1667,38.1667 22.8333,37.8333 23.5,37.5C 24.391,36.8902 25.391,36.5569 26.5,36.5 Z"/></g>
<g><path style="opacity:1" fill="#a03a13" d="M 29.5,42.5 C 28.596,43.209 28.2627,44.209 28.5,45.5C 27.2223,45.2178 26.2223,44.5511 25.5,43.5C 25.5,43.1667 25.5,42.8333 25.5,42.5C 26.4916,42.6716 27.1583,42.3382 27.5,41.5C 30.2665,37.359 30.9331,37.6923 29.5,42.5 Z"/></g>
<g><path style="opacity:1" fill="#5c1004" d="M 40.5,40.5 C 42.2161,40.6287 43.8828,40.962 45.5,41.5C 45.8333,42.5 46.5,43.1667 47.5,43.5C 47.5,43.8333 47.5,44.1667 47.5,44.5C 45.8305,46.5921 44.1638,48.5921 42.5,50.5C 42.573,48.9731 41.9063,47.9731 40.5,47.5C 40.5979,45.4471 39.9313,43.7804 38.5,42.5C 38.5,41.1667 39.1667,40.5 40.5,40.5 Z"/></g>
<g><path style="opacity:0.771" fill="#0b0100" d="M 47.5,43.5 C 47.8333,43.5 48.1667,43.5 48.5,43.5C 49.5,43.5 50.5,43.5 51.5,43.5C 51.8333,43.5 52.1667,43.5 52.5,43.5C 53.9187,44.4511 55.5853,44.7845 57.5,44.5C 57.6309,45.3764 57.2975,46.0431 56.5,46.5C 54.6837,45.2651 53.017,45.2651 51.5,46.5C 51.0984,49.4766 50.0984,52.1433 48.5,54.5C 48.7471,51.0613 48.4137,47.728 47.5,44.5C 47.5,44.1667 47.5,43.8333 47.5,43.5 Z"/></g>
<g><path style="opacity:1" fill="#2d231e" d="M 2.5,39.5 C 3.34775,40.625 4.34775,40.625 5.5,39.5C 5.51715,41.5648 5.85048,43.5648 6.5,45.5C 4.51996,46.4736 2.85329,47.807 1.5,49.5C 1.18723,45.9581 1.52056,42.6248 2.5,39.5 Z"/></g>
<g><path style="opacity:1" fill="#e9360d" d="M 23.5,40.5 C 23.5,41.8333 24.1667,42.5 25.5,42.5C 25.5,42.8333 25.5,43.1667 25.5,43.5C 23.9255,45.5475 22.9255,47.8808 22.5,50.5C 21.6091,49.7387 20.9424,48.7387 20.5,47.5C 21.3094,45.9291 21.6427,44.2624 21.5,42.5C 21.8333,41.5 22.5,40.8333 23.5,40.5 Z"/></g>
<g><path style="opacity:1" fill="#d92a08" d="M 32.5,42.5 C 34.5,42.5 36.5,42.5 38.5,42.5C 39.9313,43.7804 40.5979,45.4471 40.5,47.5C 39.8166,49.1765 38.4832,49.8432 36.5,49.5C 35.7281,48.3065 34.7281,47.3065 33.5,46.5C 33.6107,45.8826 33.944,45.3826 34.5,45C 33.244,44.5831 32.5774,43.7498 32.5,42.5 Z"/></g>
<g><path style="opacity:1" fill="#e92207" d="M 32.5,41.5 C 32.5,41.8333 32.5,42.1667 32.5,42.5C 32.5774,43.7498 33.244,44.5831 34.5,45C 33.944,45.3826 33.6107,45.8826 33.5,46.5C 32.5326,47.8062 31.1993,48.4729 29.5,48.5C 29.4431,47.391 29.1098,46.391 28.5,45.5C 28.2627,44.209 28.596,43.209 29.5,42.5C 30.609,42.4431 31.609,42.1098 32.5,41.5 Z"/></g>
<g><path style="opacity:0.979" fill="#170301" d="M 47.5,44.5 C 48.4137,47.728 48.7471,51.0613 48.5,54.5C 46.059,53.2437 43.7257,53.2437 41.5,54.5C 39.8784,53.8776 38.5451,52.8776 37.5,51.5C 38.8221,51.33 39.9887,51.6634 41,52.5C 41.7172,51.9558 42.2172,51.2891 42.5,50.5C 44.1638,48.5921 45.8305,46.5921 47.5,44.5 Z"/></g>
<g><path style="opacity:1" fill="#9e1804" d="M 21.5,42.5 C 21.6427,44.2624 21.3094,45.9291 20.5,47.5C 20.9424,48.7387 21.6091,49.7387 22.5,50.5C 22.5,51.8333 21.8333,52.5 20.5,52.5C 19.7347,49.9039 19.4013,47.2372 19.5,44.5C 20.1667,43.8333 20.8333,43.1667 21.5,42.5 Z"/></g>
<g><path style="opacity:1" fill="#742e1c" d="M 25.5,43.5 C 26.2223,44.5511 27.2223,45.2178 28.5,45.5C 29.1098,46.391 29.4431,47.391 29.5,48.5C 29.5,49.1667 29.5,49.8333 29.5,50.5C 28.8444,49.7222 28.0111,49.0556 27,48.5C 26.2352,48.5699 25.7352,48.9033 25.5,49.5C 24.391,49.5569 23.391,49.8902 22.5,50.5C 22.9255,47.8808 23.9255,45.5475 25.5,43.5 Z"/></g>
<g><path style="opacity:1" fill="#110b08" d="M 6.5,45.5 C 6.41423,46.4959 6.74756,47.3292 7.5,48C 9.62844,48.6552 11.6284,49.4886 13.5,50.5C 13.5,51.1667 13.5,51.8333 13.5,52.5C 13.5,53.1667 13.5,53.8333 13.5,54.5C 12.596,53.791 12.2627,52.791 12.5,51.5C 8.82116,51.7244 5.1545,52.0578 1.5,52.5C 1.5,51.5 1.5,50.5 1.5,49.5C 2.85329,47.807 4.51996,46.4736 6.5,45.5 Z"/></g>
<g><path style="opacity:1" fill="#451e15" d="M 16.5,43.5 C 17.609,43.5569 18.609,43.8902 19.5,44.5C 19.4013,47.2372 19.7347,49.9039 20.5,52.5C 19.0108,50.8839 18.0108,48.8839 17.5,46.5C 16.1678,48.5343 14.8344,50.5343 13.5,52.5C 13.5,51.8333 13.5,51.1667 13.5,50.5C 13.366,48.7085 13.6993,47.0418 14.5,45.5C 15.8333,45.5 16.5,44.8333 16.5,43.5 Z"/></g>
<g><path style="opacity:1" fill="#9c0802" d="M 33.5,46.5 C 33.6138,49.216 32.6138,51.216 30.5,52.5C 29.6618,52.1583 29.3284,51.4916 29.5,50.5C 29.5,49.8333 29.5,49.1667 29.5,48.5C 31.1993,48.4729 32.5326,47.8062 33.5,46.5 Z"/></g>
<g><path style="opacity:1" fill="#8c0902" d="M 40.5,47.5 C 41.9063,47.9731 42.573,48.9731 42.5,50.5C 42.2172,51.2891 41.7172,51.9558 41,52.5C 39.9887,51.6634 38.8221,51.33 37.5,51.5C 37.5,50.8333 37.1667,50.5 36.5,50.5C 36.5,50.1667 36.5,49.8333 36.5,49.5C 38.4832,49.8432 39.8166,49.1765 40.5,47.5 Z"/></g>
<g><path style="opacity:1" fill="#351e17" d="M 25.5,49.5 C 25.6621,51.5273 25.4955,53.5273 25,55.5C 24.6174,56.056 24.1174,56.3893 23.5,56.5C 22.8333,56.5 22.5,56.1667 22.5,55.5C 21.8333,54.5 21.1667,53.5 20.5,52.5C 21.8333,52.5 22.5,51.8333 22.5,50.5C 23.391,49.8902 24.391,49.5569 25.5,49.5 Z"/></g>
<g><path style="opacity:1" fill="#340803" d="M 33.5,46.5 C 34.7281,47.3065 35.7281,48.3065 36.5,49.5C 36.5,49.8333 36.5,50.1667 36.5,50.5C 35.7784,50.9175 35.2784,51.5842 35,52.5C 34.6667,51.8333 34.3333,51.1667 34,50.5C 33.5065,52.1341 33.3398,53.8008 33.5,55.5C 32.8333,55.1667 32.1667,54.8333 31.5,54.5C 31.1667,53.8333 30.8333,53.1667 30.5,52.5C 32.6138,51.216 33.6138,49.216 33.5,46.5 Z"/></g>
<g><path style="opacity:0.892" fill="#100301" d="M 36.5,50.5 C 37.1667,50.5 37.5,50.8333 37.5,51.5C 38.5451,52.8776 39.8784,53.8776 41.5,54.5C 41.5,56.1667 41.5,57.8333 41.5,59.5C 40.1667,59.5 38.8333,59.5 37.5,59.5C 36.1667,58.1667 34.8333,56.8333 33.5,55.5C 33.3398,53.8008 33.5065,52.1341 34,50.5C 34.3333,51.1667 34.6667,51.8333 35,52.5C 35.2784,51.5842 35.7784,50.9175 36.5,50.5 Z"/></g>
<g><path style="opacity:0.959" fill="#170a06" d="M 20.5,52.5 C 21.1667,53.5 21.8333,54.5 22.5,55.5C 21.8333,55.8333 21.1667,56.1667 20.5,56.5C 18.5615,54.8372 16.2282,54.1706 13.5,54.5C 13.5,53.8333 13.5,53.1667 13.5,52.5C 14.8344,50.5343 16.1678,48.5343 17.5,46.5C 18.0108,48.8839 19.0108,50.8839 20.5,52.5 Z"/></g>
<g><path style="opacity:0.913" fill="#150602" d="M 29.5,50.5 C 29.3284,51.4916 29.6618,52.1583 30.5,52.5C 30.8333,53.1667 31.1667,53.8333 31.5,54.5C 30.1667,56.1667 28.8333,57.8333 27.5,59.5C 26.5,59.5 25.5,59.5 24.5,59.5C 23.8902,58.609 23.5569,57.609 23.5,56.5C 24.1174,56.3893 24.6174,56.056 25,55.5C 25.4955,53.5273 25.6621,51.5273 25.5,49.5C 25.7352,48.9033 26.2352,48.5699 27,48.5C 28.0111,49.0556 28.8444,49.7222 29.5,50.5 Z"/></g>
<g><path style="opacity:0.822" fill="#0a0201" d="M 13.5,54.5 C 16.2282,54.1706 18.5615,54.8372 20.5,56.5C 19.3065,57.2719 18.3065,58.2719 17.5,59.5C 16.8333,59.5 16.1667,59.5 15.5,59.5C 14.5592,57.9505 13.8925,56.2838 13.5,54.5 Z"/></g>
</svg>
